<?xml version="1.0" standalone="no"?>
<!DOCTYPE svg PUBLIC "-//W3C//DTD SVG 20010904//EN"
 "http://www.w3.org/TR/2001/REC-SVG-20010904/DTD/svg10.dtd">
<svg version="1.0" xmlns="http://www.w3.org/2000/svg"
 width="300.000000pt" height="300.000000pt" viewBox="0 0 300.000000 300.000000"
 preserveAspectRatio="xMidYMid meet">
<metadata>
Created by potrace 1.11, written by Peter Selinger 2001-2013
</metadata>
<g transform="translate(0.000000,300.000000) scale(0.100000,-0.100000)"
fill="#000000" stroke="none">
<path d="M1306 2979 c-664 -92 -1187 -612 -1281 -1274 -66 -463 88 -920 424
-1256 286 -285 654 -439 1051 -439 399 0 762 152 1051 440 210 209 345 457
410 750 20 89 24 133 24 295 0 195 -3 221 -51 402 -116 445 -469 831 -911 999
-38 14 -122 39 -188 55 -102 25 -145 30 -290 34 -93 2 -201 0 -239 -6z"/>
</g>
</svg>
